<svg xmlns="http://www.w3.org/2000/svg" xmlns:xlink="http://www.w3.org/1999/xlink" width="142" height="50" viewBox="0 0 142 50">
    <defs>
        <path id="a" d="M.345.24h24.308V20H.345z"/>
        <path id="c" d="M12.174 1.119C2.576 4.613-2.372 15.226 1.12 24.824c3.494 9.599 14.107 14.547 23.705 11.053 9.598-3.493 14.546-14.106 11.053-23.704a18.563 18.563 0 0 0-1.323-2.849l-6.102 2.22.001.001-11.026 4.012 2.17 5.959 11.005-4.006c.437 5.323-2.685 10.494-7.946 12.409-6.309 2.296-13.283-.957-15.578-7.264-2.296-6.307.956-13.282 7.263-15.578a12.125 12.125 0 0 1 10.231.899l3.172-5.492A18.537 18.537 0 0 0 18.493 0c-2.099 0-4.232.36-6.319 1.119"/>
        <linearGradient id="d" x1="67.097%" x2="32.904%" y1="96.972%" y2="3.026%">
            <stop offset="0%" stop-color="#FF6400"/>
            <stop offset="100%" stop-color="#FFDB00"/>
        </linearGradient>
        <path id="f" d="M0 50h141.666V0H0z"/>
    </defs>
    <g fill="none" fill-rule="evenodd">
        <g transform="translate(6 30)">
            <mask id="b" fill="#fff">
                <use xlink:href="#a"/>
            </mask>
            <path fill="#9128A0" d="M12.5 5.402C7.726 5.402 3.42 3.422.344.24V20l12.228-6.34L24.653 20V.24A16.848 16.848 0 0 1 12.5 5.402" mask="url(#b)"/>
        </g>
        <path fill="#781982" d="M18.5 35.402a16.842 16.842 0 0 1-11.743-4.75h-.412v5.77a21.55 21.55 0 0 0 12.154 3.73c4.505 0 8.69-1.376 12.154-3.73v-5.77h-.412a16.842 16.842 0 0 1-11.742 4.75"/>
        <g>
            <mask id="e" fill="#fff">
                <use xlink:href="#c"/>
            </mask>
            <path fill="url(#d)" d="M12.174 1.119C2.576 4.613-2.372 15.226 1.12 24.824c3.494 9.599 14.107 14.547 23.705 11.053 9.598-3.493 14.546-14.106 11.053-23.704a18.563 18.563 0 0 0-1.323-2.849l-6.102 2.22.001.001-11.026 4.012 2.17 5.959 11.005-4.006c.437 5.323-2.685 10.494-7.946 12.409-6.309 2.296-13.283-.957-15.578-7.264-2.296-6.307.956-13.282 7.263-15.578a12.125 12.125 0 0 1 10.231.899l3.172-5.492A18.537 18.537 0 0 0 18.493 0c-2.099 0-4.232.36-6.319 1.119" mask="url(#e)"/>
        </g>
        <g>
            <path fill="#000" d="M61.482 11.13c1.313-.708 2.815-1.063 4.507-1.063 2.582 0 4.786.915 6.615 2.742l2.81-2.742c-1.12-1.28-2.502-2.25-4.146-2.913-1.646-.663-3.474-.995-5.485-.995-2.468 0-4.69.532-6.666 1.595-1.977 1.062-3.525 2.53-4.645 4.404-1.12 1.873-1.68 3.988-1.68 6.341s.56 4.467 1.68 6.34c1.12 1.874 2.662 3.342 4.628 4.405 1.965 1.062 4.169 1.594 6.614 1.594 1.737 0 3.428-.263 5.073-.789 1.646-.525 3.085-1.279 4.319-2.262V17.265H64.434v3.772h6.456v4.66c-1.417.822-3.062 1.233-4.935 1.233-1.67 0-3.16-.365-4.473-1.096a7.985 7.985 0 0 1-3.085-3.016c-.743-1.28-1.114-2.72-1.114-4.319 0-1.646.37-3.108 1.114-4.388a7.743 7.743 0 0 1 3.085-2.98M82.714 4.035c-.776 0-1.43.246-1.953.736a2.412 2.412 0 0 0-.79 1.834c0 .732.264 1.343.79 1.834.524.492 1.177.737 1.953.737.8 0 1.457-.257 1.972-.77.513-.515.77-1.149.77-1.903 0-.708-.263-1.297-.788-1.765-.526-.468-1.177-.703-1.954-.703"/>
            <mask id="g" fill="#fff">
                <use xlink:href="#f"/>
            </mask>
            <path fill="#000" d="M80.554 30.495h4.285V12.192h-4.285zM97.623 25.766l-5.69-13.573h-4.456l7.85 18.302h4.42l7.85-18.302h-4.113zM112.498 19.87c.206-1.348.782-2.428 1.73-3.239.949-.81 2.109-1.217 3.48-1.217 1.394 0 2.559.412 3.496 1.234.937.823 1.496 1.897 1.68 3.222h-10.386zm9.99-6.7c-1.404-.789-2.998-1.183-4.78-1.183-1.806 0-3.428.4-4.867 1.2a8.63 8.63 0 0 0-3.376 3.341c-.812 1.428-1.217 3.033-1.217 4.816 0 1.805.417 3.422 1.25 4.85.835 1.428 2.018 2.542 3.548 3.342 1.53.8 3.303 1.2 5.313 1.2 1.576 0 2.993-.252 4.25-.755 1.256-.502 2.296-1.245 3.119-2.228l-2.295-2.639c-1.304 1.325-2.96 1.988-4.971 1.988-1.577 0-2.897-.394-3.96-1.183-1.062-.788-1.718-1.856-1.97-3.204h14.362c.045-.549.068-.97.068-1.268 0-1.874-.394-3.525-1.182-4.953a8.388 8.388 0 0 0-3.291-3.325zM135.154 14.866v-2.674h-4.079v18.303h4.285v-8.877c0-1.828.467-3.227 1.405-4.199.936-.97 2.239-1.456 3.908-1.456.295 0 .627.034.993.102v-4.078c-3.108 0-5.279.96-6.512 2.88" mask="url(#g)"/>
        </g>
    </g>
</svg>
