<svg xmlns="http://www.w3.org/2000/svg" xmlns:xlink="http://www.w3.org/1999/xlink" width="25" height="30" viewBox="0 0 25 30">
    <defs>
        <path id="a" d="M0 0h24.459v24H0z"/>
    </defs>
    <g fill="none" fill-rule="evenodd">
        <g transform="translate(0 6)">
            <mask id="b" fill="#fff">
                <use xlink:href="#a"/>
            </mask>
            <path fill="#FFDC00" d="M21.34 24H3.118A3.12 3.12 0 0 1 .01 20.622L1.73 0h21l1.718 20.622A3.12 3.12 0 0 1 21.34 24" mask="url(#b)"/>
        </g>
        <path stroke="#FF6400" stroke-linecap="round" stroke-linejoin="round" d="M17.73 25.189c-1.473-1.3-3.383-2.113-5.5-2.113s-4.029.814-5.5 2.113M9.73 17.612a2.258 2.258 0 0 1-1.5.576 2.258 2.258 0 0 1-1.5-.576M17.73 17.612a2.258 2.258 0 0 1-1.5.576 2.258 2.258 0 0 1-1.5-.576"/>
        <path fill="#FFA000" d="M20.73 4h-17l-2 2h21z"/>
        <path stroke="#9128A0" stroke-linecap="round" stroke-linejoin="round" d="M7.23 11V5.5a5 5 0 0 1 10 0V11"/>
    </g>
</svg>
